<?xml version="1.0" standalone="no"?>
<!DOCTYPE svg PUBLIC "-//W3C//DTD SVG 20010904//EN"
 "http://www.w3.org/TR/2001/REC-SVG-20010904/DTD/svg10.dtd">
<svg version="1.0" xmlns="http://www.w3.org/2000/svg"
 width="300.000000pt" height="300.000000pt" viewBox="0 0 300.000000 300.000000"
 preserveAspectRatio="xMidYMid meet">
<metadata>
Created by potrace 1.10, written by Peter Selinger 2001-2011
</metadata>
<g transform="translate(0.000000,300.000000) scale(0.100000,-0.100000)"
fill="#000000" stroke="none">
<path d="M1300 2983 c-282 -44 -518 -146 -730 -314 -268 -212 -458 -518 -536
-864 -25 -110 -30 -415 -10 -544 75 -470 385 -884 826 -1106 79 -39 265 -101
367 -122 128 -26 443 -25 568 1 463 97 854 400 1058 820 45 92 96 240 118 341
32 143 37 398 11 550 -84 491 -401 904 -854 1114 -205 96 -380 132 -627 130
-91 -1 -177 -4 -191 -6z m420 -23 c229 -34 480 -140 672 -286 35 -26 107 -92
161 -147 221 -225 366 -524 408 -842 16 -121 6 -373 -20 -490 -132 -608 -643
-1079 -1251 -1154 -353 -44 -693 33 -990 224 -413 267 -664 715 -674 1205 -5
259 50 491 170 720 224 424 641 713 1119 774 113 14 292 12 405 -4z"/>
<path d="M1374 2883 c2 -10 14 -55 26 -100 29 -108 44 -108 67 -1 l17 83 16
-80 c22 -115 39 -113 73 12 14 53 24 99 22 101 -10 11 -24 -13 -35 -60 -21
-94 -23 -97 -32 -53 -18 84 -29 115 -41 115 -14 0 -37 -73 -37 -115 0 -39 -17
-38 -25 3 -12 70 -28 112 -42 112 -9 0 -12 -7 -9 -17z"/>
<path d="M1214 2879 c-6 -8 -16 -34 -23 -59 l-13 -44 -34 38 c-18 21 -41 36
-49 34 -12 -2 -5 -16 29 -53 30 -33 48 -63 52 -87 4 -22 12 -38 20 -38 16 0
17 13 5 57 -7 25 -5 45 11 88 20 57 21 89 2 64z"/>
<path d="M1640 2805 c-12 -83 -9 -122 9 -111 4 3 11 34 15 68 4 35 9 78 13 96
4 24 2 32 -10 32 -11 0 -18 -21 -27 -85z"/>
<path d="M1729 2785 c-15 -54 -22 -98 -17 -101 14 -9 16 -4 36 77 l19 74 29
-90 c18 -54 34 -90 43 -90 8 0 22 34 37 95 28 112 27 100 10 100 -9 0 -18 -23
-26 -67 -7 -38 -15 -72 -18 -77 -2 -4 -18 33 -34 83 -16 50 -34 91 -41 91 -7
0 -23 -41 -38 -95z"/>
<path d="M1957 2839 c7 -7 15 -10 18 -7 3 3 -2 9 -12 12 -14 6 -15 5 -6 -5z"/>
<path d="M985 2813 c-22 -9 -42 -17 -43 -19 -3 -2 57 -172 65 -183 4 -7 113
41 113 50 0 13 -12 11 -55 -7 -20 -8 -38 -14 -39 -12 -4 7 -26 59 -26 63 0 2
14 6 30 10 17 4 30 13 30 21 0 12 -5 12 -33 0 -33 -13 -34 -13 -45 17 -6 17
-11 31 -9 32 1 1 17 6 36 11 19 5 36 15 39 22 5 16 -14 15 -63 -5z"/>
<path d="M1937 2728 c-20 -46 -37 -86 -37 -89 0 -9 76 -39 100 -39 35 0 67 22
84 56 20 43 20 63 0 92 -14 21 -82 62 -102 62 -4 0 -25 -37 -45 -82z m93 37
c35 -18 47 -54 30 -94 -17 -42 -49 -56 -94 -41 l-35 11 25 57 c14 31 28 63 31
70 6 15 8 15 43 -3z"/>
<path d="M816 2729 c-49 -39 -21 -89 51 -89 70 0 84 -53 17 -66 -20 -4 -33
-11 -31 -18 6 -17 49 -8 74 16 47 44 15 98 -60 98 -24 0 -40 5 -43 15 -9 21
14 45 43 45 14 0 21 4 18 10 -10 16 -40 11 -69 -11z"/>
<path d="M2162 2688 c-16 -16 -15 -47 3 -78 8 -14 14 -35 15 -47 0 -30 -39
-31 -65 -3 -20 22 -35 26 -35 9 0 -15 36 -46 62 -55 25 -8 68 21 68 47 0 11
-9 38 -20 60 -12 22 -18 44 -15 49 11 17 43 11 59 -12 11 -16 19 -19 27 -11 7
7 3 16 -17 32 -30 23 -64 27 -82 9z"/>
<path d="M653 2629 l-33 -21 47 -66 c63 -91 71 -98 83 -86 8 8 3 21 -16 43
-36 43 -18 56 43 30 40 -17 73 -17 73 0 0 4 -23 13 -51 20 -46 12 -50 15 -45
37 15 60 -39 83 -101 43z m75 -30 c2 -14 -4 -31 -12 -39 -13 -10 -19 -9 -36
11 -24 30 -24 35 -2 48 27 16 47 8 50 -20z"/>
<path d="M2277 2559 c-38 -48 -48 -66 -45 -91 4 -39 46 -73 80 -65 32 8 122
113 114 133 -4 11 -19 -1 -56 -45 -27 -33 -54 -62 -60 -66 -14 -9 -60 22 -60
40 0 8 23 41 50 75 44 52 56 82 32 79 -4 0 -29 -27 -55 -60z"/>
<path d="M532 2532 l-43 -37 66 -72 66 -73 45 37 c24 21 44 41 44 45 0 16 -21
7 -44 -17 -29 -31 -37 -31 -65 -1 l-22 23 26 17 c14 9 25 21 25 26 0 18 -27
10 -43 -12 l-15 -23 -25 25 -24 25 30 26 c16 14 28 30 26 36 -2 7 -23 -4 -47
-25z"/>
<path d="M1444 2471 c-22 -11 -44 -40 -74 -95 -24 -44 -51 -81 -61 -83 -11 -3
-19 -11 -19 -19 0 -7 -15 -20 -33 -29 -55 -26 -102 -77 -79 -87 4 -2 18 -16
32 -31 22 -26 23 -30 9 -40 -9 -7 -20 -25 -26 -42 -7 -21 -16 -30 -31 -29 -26
1 -37 -31 -37 -101 l0 -50 38 -6 c51 -8 60 -20 61 -76 1 -46 2 -48 41 -62 22
-8 44 -22 49 -30 5 -9 24 -30 41 -46 32 -31 61 -75 50 -75 -4 0 -39 28 -80 63
-153 131 -318 262 -334 265 -19 4 -11 -4 105 -95 44 -34 138 -109 209 -167 72
-57 132 -102 135 -99 2 2 -2 8 -10 13 -16 10 -21 48 -7 57 6 3 7 1 4 -4 -4 -6
2 -18 13 -28 11 -10 20 -26 20 -36 0 -10 5 -21 10 -24 18 -11 0 -25 -30 -25
-21 0 -35 -8 -46 -26 -12 -18 -23 -24 -37 -20 -27 7 -188 -109 -185 -133 2
-21 -6 -31 -42 -45 -22 -9 -57 -16 -78 -16 -21 0 -48 -9 -62 -20 -14 -11 -30
-20 -36 -20 -11 0 -74 -85 -74 -100 0 -6 -6 -19 -12 -31 -11 -17 -10 -22 4
-33 11 -8 18 -30 20 -62 3 -42 7 -51 35 -69 17 -11 36 -30 42 -43 6 -13 23
-25 40 -28 17 -4 31 -14 34 -25 3 -10 12 -19 21 -19 9 0 39 -23 67 -51 37 -37
54 -48 62 -40 16 16 45 14 107 -9 30 -11 56 -20 57 -20 11 0 0 -60 -12 -70 -8
-7 -15 -19 -15 -28 0 -8 -7 -23 -16 -33 -24 -27 -11 -49 29 -49 24 0 41 9 65
33 18 18 32 38 32 44 0 51 173 258 257 308 41 24 47 40 29 76 -12 24 -12 30 0
40 11 9 17 9 29 -1 15 -12 39 -5 30 10 -3 5 8 18 25 30 35 25 85 115 81 146
-1 11 8 33 21 49 17 21 23 43 24 87 1 54 15 92 26 71 7 -12 -7 -155 -17 -177
-6 -14 -5 -18 5 -14 8 2 17 15 21 29 19 66 39 171 39 203 0 20 9 62 20 93 20
57 25 133 14 192 -8 37 -31 41 -36 6 -3 -24 -4 -24 -32 -10 -15 8 -43 15 -61
15 -79 0 -154 66 -95 85 12 4 20 15 20 29 0 36 40 76 76 76 28 0 34 6 64 65
18 36 36 65 39 65 4 0 15 14 24 30 10 17 24 30 31 30 11 0 33 72 23 75 -22 6
-220 105 -242 121 -16 11 -61 36 -100 54 -38 18 -114 55 -168 81 -54 27 -102
48 -105 48 -4 -1 -21 -9 -38 -18z m68 -31 c-1 -7 5 -9 16 -6 11 4 24 0 32 -9
7 -8 18 -15 24 -15 6 0 44 -16 83 -35 40 -19 77 -35 83 -35 5 0 10 -7 10 -16
0 -11 6 -15 20 -11 11 3 20 1 20 -3 0 -5 26 -21 58 -36 31 -16 60 -32 63 -37
3 -5 9 -8 13 -8 12 1 41 -13 54 -26 8 -7 18 -11 23 -7 14 8 56 -21 56 -40 0
-9 -4 -16 -8 -16 -4 0 -11 -9 -14 -20 -4 -11 -11 -18 -16 -15 -5 4 -9 -1 -9
-9 0 -9 -9 -21 -20 -28 -11 -7 -20 -19 -20 -26 0 -7 -6 -15 -14 -18 -8 -3 -12
-12 -9 -20 3 -8 0 -14 -6 -14 -6 0 -11 -9 -11 -20 0 -11 -4 -20 -9 -20 -5 0
-22 -5 -38 -12 -15 -7 -35 -12 -43 -13 -8 0 -14 -9 -13 -18 0 -12 -4 -16 -13
-13 -10 4 -12 -3 -9 -27 l5 -32 -10 29 c-5 17 -5 36 0 46 8 15 -20 96 -38 110
-4 3 -8 13 -10 24 -2 12 1 16 10 11 7 -4 0 4 -17 19 -16 14 -33 25 -36 26 -11
0 -45 -46 -41 -58 2 -8 -3 -10 -15 -6 -12 4 -14 3 -6 -3 10 -7 6 -23 -17 -67
-17 -31 -30 -64 -30 -72 0 -8 -5 -14 -10 -14 -6 0 -9 -3 -9 -7 3 -21 -2 -33
-13 -27 -7 4 -8 3 -4 -4 4 -6 -3 -31 -16 -54 -12 -24 -23 -45 -23 -48 -1 -3
-7 -18 -13 -33 -7 -15 -15 -39 -18 -52 -3 -14 -10 -23 -14 -20 -5 3 -6 -3 -4
-12 2 -10 0 -25 -6 -33 -9 -13 -13 -12 -29 8 -11 12 -22 22 -26 22 -3 0 -18
11 -32 24 -15 14 -30 23 -34 21 -10 -7 -20 25 -12 37 3 6 2 8 -4 5 -6 -4 -20
4 -33 18 -13 14 -28 21 -38 18 -11 -5 -13 -3 -7 7 6 9 4 12 -7 8 -8 -4 -15 0
-15 8 0 7 4 11 9 8 4 -3 8 -1 8 5 0 5 -6 12 -12 15 -10 5 -10 7 0 12 6 3 12
10 12 15 0 6 -4 7 -10 4 -5 -3 -10 1 -10 9 0 19 -59 66 -76 59 -9 -3 -12 9
-12 41 0 40 3 48 29 63 16 10 29 22 29 29 0 6 11 28 25 48 14 20 25 42 24 49
0 9 -2 9 -6 -1 -3 -8 -13 0 -27 20 -23 34 -19 58 10 58 8 0 14 4 14 10 0 5 10
14 21 21 17 9 20 8 14 -3 -3 -7 2 -3 13 10 14 15 22 18 25 10 3 -7 6 1 7 17 1
26 3 27 10 10 8 -19 9 -19 9 2 1 12 5 24 10 27 5 3 12 18 15 32 9 35 32 59 40
41 3 -6 4 1 1 16 -4 19 -2 26 5 22 5 -3 10 1 10 10 0 18 36 35 65 30 11 -1 19
-8 17 -15z m218 -380 c0 -26 21 -70 31 -65 4 3 11 0 15 -6 5 -8 3 -9 -6 -4
-10 6 -11 4 -5 -11 17 -41 20 -109 15 -374 -4 -240 -7 -275 -21 -275 -13 0
-76 47 -126 94 -24 23 -124 100 -137 105 -7 3 -8 7 -1 13 6 4 12 21 13 37 1
16 23 76 49 135 27 58 48 108 49 111 0 3 15 36 32 74 18 38 32 71 32 73 0 3 6
19 14 36 8 18 17 45 20 60 7 30 26 28 26 -3z m105 -339 c-3 -6 3 -9 12 -9 18
1 74 -7 126 -18 28 -6 36 -19 15 -27 -8 -3 -6 -6 5 -6 9 -1 17 4 17 10 0 5 4
8 8 5 4 -2 9 -24 10 -47 3 -34 0 -40 -13 -35 -12 4 -14 2 -6 -11 6 -11 4 -30
-5 -56 -8 -22 -14 -49 -14 -61 0 -12 -6 -28 -12 -35 -11 -11 -10 -12 1 -6 10
6 12 4 7 -4 -4 -7 -13 -10 -19 -8 -7 2 -20 -2 -29 -11 -16 -14 -18 -13 -18 1
0 10 -4 17 -10 17 -5 0 -7 -13 -5 -30 3 -16 7 -43 10 -60 7 -46 -12 -88 -40
-86 -13 0 -21 4 -19 8 2 4 -9 15 -26 24 -32 19 -47 44 -27 44 9 0 12 21 11 77
-1 43 2 86 8 97 7 12 7 16 0 12 -7 -4 -12 32 -14 109 -3 105 -1 115 15 115 10
0 16 -4 12 -9z m-205 -315 c66 -54 120 -102 120 -107 0 -4 6 -6 14 -3 15 6 89
-54 81 -66 -3 -4 3 -7 11 -6 9 0 18 -7 19 -16 2 -10 -2 -18 -9 -18 -15 0 -48
34 -41 42 3 3 -2 11 -12 19 -11 9 -14 10 -9 2 12 -22 -8 -14 -37 12 -15 14
-27 31 -27 38 0 6 -7 1 -16 -11 -8 -12 -23 -22 -33 -22 -19 0 -31 -18 -31 -46
0 -9 9 -14 28 -12 58 4 54 -13 -10 -45 -35 -16 -70 -29 -78 -28 -13 2 -13 1 0
-8 8 -6 22 -8 31 -6 9 3 31 -1 50 -9 130 -55 134 -57 117 -67 -20 -11 -50 -1
-41 14 3 5 1 7 -4 4 -6 -4 -30 0 -54 9 -24 9 -49 17 -55 18 -7 1 -18 7 -25 12
-23 18 -49 24 -49 12 0 -6 -3 -8 -7 -5 -3 4 -12 2 -20 -4 -7 -7 -30 -13 -51
-14 -20 -2 -59 -8 -87 -14 -82 -19 -216 -14 -237 7 -13 13 -15 12 77 39 33 10
68 17 78 15 10 -1 16 2 13 6 -2 4 3 8 12 9 35 3 73 11 78 16 3 3 22 -2 42 -11
32 -13 112 -24 112 -14 0 6 -110 52 -123 51 -7 0 11 -11 38 -25 28 -13 39 -21
25 -18 -45 11 -92 33 -86 42 2 4 -4 9 -15 9 -11 1 -17 -2 -14 -8 10 -15 -8
-11 -96 22 -46 17 -94 33 -106 36 -24 6 -28 19 -14 41 6 10 20 8 65 -12 31
-14 59 -25 61 -26 3 0 25 -9 51 -20 55 -24 75 -25 68 -5 -4 8 -1 15 6 15 6 0
8 5 5 10 -7 11 4 68 32 170 8 30 15 61 16 68 1 19 7 15 137 -92z m-214 37 c-6
-16 -5 -16 8 0 22 28 27 5 12 -54 -8 -30 -16 -74 -18 -99 -2 -27 -8 -45 -16
-44 -7 1 -21 2 -31 3 -14 1 -19 7 -16 21 3 16 1 18 -12 12 -9 -6 -36 -2 -73
11 -51 18 -58 23 -49 39 5 10 14 18 19 18 5 0 15 6 22 13 35 32 80 57 103 57
14 0 30 9 37 20 16 25 22 26 14 3z m-142 -227 l79 -31 -39 -12 c-22 -6 -49
-12 -61 -12 -12 -1 -25 -5 -28 -11 -3 -5 -16 -10 -28 -10 -27 -1 -51 -19 -55
-42 -4 -25 35 -45 102 -53 41 -6 54 -10 45 -17 -10 -7 -8 -8 6 -3 11 4 65 16
120 26 55 11 119 26 142 33 24 7 47 9 55 5 7 -5 23 -9 36 -9 12 0 22 -4 22
-10 0 -5 12 -10 26 -10 17 0 23 -4 18 -12 -5 -7 -2 -9 9 -5 9 3 21 -1 29 -11
11 -15 11 -16 -3 -4 -14 11 -20 10 -34 -4 -13 -14 -16 -28 -11 -65 6 -40 4
-48 -11 -53 -10 -3 -29 -16 -43 -29 -14 -12 -37 -22 -52 -22 -21 1 -25 -2 -17
-12 8 -9 5 -20 -10 -39 -12 -15 -21 -23 -21 -19 0 5 -8 1 -18 -8 -10 -10 -22
-15 -25 -12 -4 3 -3 0 2 -6 5 -7 -2 -21 -20 -40 -16 -16 -29 -37 -29 -45 0 -9
-5 -12 -12 -8 -6 4 -8 3 -5 -3 8 -12 -40 -113 -54 -113 -6 0 -8 -4 -5 -9 3 -5
-1 -11 -9 -15 -8 -3 -15 0 -16 7 0 9 -2 9 -6 -1 -2 -6 -9 -10 -13 -7 -9 5 20
68 40 89 17 17 -6 89 -28 92 -4 0 -24 8 -44 17 -21 10 -50 18 -65 18 -21 1
-23 3 -8 6 32 8 39 21 8 15 -15 -3 -34 -11 -41 -19 -16 -16 -32 -17 -32 -2 0
5 4 8 8 5 4 -2 8 4 8 14 0 14 -4 16 -13 9 -21 -18 -82 31 -84 69 0 15 -1 15
-8 -1 -7 -18 -8 -18 -21 -1 -12 15 -12 16 -1 9 10 -5 12 -4 7 4 -4 6 -11 9
-16 6 -5 -3 -11 -1 -15 5 -3 5 -14 10 -25 10 -20 0 -35 26 -20 35 6 4 10 12 9
18 0 9 -2 9 -6 0 -2 -7 -10 -13 -17 -13 -17 0 -57 35 -49 43 3 4 0 13 -6 21
-7 8 -10 19 -7 24 3 5 -2 21 -9 36 -13 25 -13 27 0 22 8 -3 17 0 21 6 4 6 3 8
-2 5 -6 -3 -16 -2 -24 4 -13 7 -12 9 2 9 23 0 32 18 18 35 -9 10 -4 21 20 47
18 18 28 26 24 18 -4 -8 7 0 24 18 18 17 38 32 45 32 8 0 7 -4 -3 -11 -12 -9
-11 -9 5 -3 11 4 30 7 42 7 13 -1 21 3 18 7 -3 5 3 6 12 4 10 -3 27 2 38 9 21
16 19 17 129 -27z m498 30 c10 -7 15 -15 12 -18 -2 -3 2 -8 11 -12 9 -3 13 -2
10 3 -3 5 0 13 6 17 8 4 9 3 5 -5 -5 -7 5 -24 24 -41 18 -17 28 -30 23 -30 -5
0 -9 -10 -10 -22 -1 -13 -12 -31 -24 -40 -22 -19 -49 -24 -49 -10 0 5 -19 15
-42 22 -61 19 -62 23 -23 54 42 33 43 43 10 58 -19 9 -22 14 -14 25 14 16 39
16 61 -1z m-852 -146 c0 -5 -5 -10 -11 -10 -5 0 -7 5 -4 10 3 6 8 10 11 10 2
0 4 -4 4 -10z"/>
<path d="M2012 2151 c-11 -7 -11 -9 0 -14 9 -3 15 1 15 9 0 8 -1 14 -1 14 -1
0 -7 -4 -14 -9z"/>
<path d="M1270 2131 c0 -5 5 -13 10 -16 6 -3 10 -2 10 4 0 5 -4 13 -10 16 -5
3 -10 2 -10 -4z"/>
<path d="M1821 1684 c0 -11 3 -14 6 -6 3 7 2 16 -1 19 -3 4 -6 -2 -5 -13z"/>
<path d="M1823 1620 c0 -25 2 -35 4 -22 2 12 2 32 0 45 -2 12 -4 2 -4 -23z"/>
<path d="M2006 1637 c3 -10 9 -15 12 -12 3 3 0 11 -7 18 -10 9 -11 8 -5 -6z"/>
<path d="M1885 1300 c3 -5 11 -10 16 -10 6 0 7 5 4 10 -3 6 -11 10 -16 10 -6
0 -7 -4 -4 -10z"/>
<path d="M1526 1463 c82 -76 194 -162 194 -149 0 6 -188 158 -210 170 -8 4 -1
-5 16 -21z"/>
<path d="M1220 1273 c79 -37 101 -45 106 -41 3 3 -25 17 -61 32 -72 29 -100
34 -45 9z"/>
<path d="M1604 1226 c-10 -8 -16 -18 -12 -22 10 -9 58 12 58 26 0 14 -23 12
-46 -4z"/>
<path d="M1415 639 c-4 -6 -5 -12 -2 -15 2 -3 7 2 10 11 7 17 1 20 -8 4z"/>
<path d="M2428 2413 c-36 -32 -66 -62 -67 -68 -5 -19 16 -15 43 10 15 14 29
25 30 25 13 0 13 -36 1 -71 -12 -34 -13 -45 -3 -57 11 -13 15 -8 23 34 10 44
14 49 40 52 17 2 36 8 43 14 21 18 14 63 -16 91 l-29 27 -65 -57z m93 1 c12
-23 12 -27 -6 -40 -23 -17 -27 -17 -51 0 -19 14 -19 15 5 40 30 32 34 32 52 0z"/>
<path d="M434 2429 c-3 -6 17 -31 47 -57 102 -89 103 -90 84 -112 -9 -10 -14
-24 -10 -31 10 -15 44 27 45 54 0 10 -26 41 -57 70 -31 29 -65 60 -75 70 -21
20 -25 21 -34 6z"/>
<path d="M2547 2270 c-38 -27 -74 -51 -80 -53 -9 -3 -9 -7 0 -17 10 -11 19 -8
47 13 19 15 37 27 39 27 3 0 10 -13 17 -30 7 -16 16 -30 20 -30 18 0 18 15 -1
42 -12 16 -20 31 -18 32 2 2 15 9 28 16 25 13 34 7 60 -39 5 -7 13 -12 19 -10
11 4 -44 100 -57 98 -3 0 -37 -22 -74 -49z"/>
<path d="M501 2294 c0 -11 3 -14 6 -6 3 7 2 16 -1 19 -3 4 -6 -2 -5 -13z"/>
<path d="M320 2288 c0 -7 26 -38 57 -70 l58 -58 -79 26 c-106 36 -115 23 -34
-51 47 -43 57 -56 38 -51 -121 35 -133 37 -143 27 -12 -12 -17 -10 106 -44
113 -32 122 -19 40 57 l-58 55 74 -25 c106 -35 111 -21 25 70 -70 75 -84 85
-84 64z"/>
<path d="M2700 2280 c0 -5 5 -10 10 -10 6 0 10 5 10 10 0 6 -4 10 -10 10 -5 0
-10 -4 -10 -10z"/>
<path d="M2625 2139 c-38 -21 -74 -40 -80 -42 -6 -3 -6 -9 1 -16 8 -9 31 -1
92 31 45 24 82 49 82 56 0 19 -19 13 -95 -29z"/>
<path d="M2750 2155 c0 -8 4 -15 10 -15 5 0 7 7 4 15 -4 8 -8 15 -10 15 -2 0
-4 -7 -4 -15z"/>
<path d="M2666 2059 c-38 -16 -75 -29 -83 -29 -15 0 -18 -16 -4 -24 5 -3 39 7
75 24 36 16 66 27 66 25 0 -3 -23 -36 -51 -75 -71 -97 -63 -108 48 -62 104 42
97 38 89 51 -6 9 -69 -12 -119 -40 -33 -18 -28 -5 23 65 50 69 61 97 38 95 -7
0 -44 -14 -82 -30z"/>
<path d="M194 2044 c-4 -10 -13 -34 -21 -53 -7 -19 -12 -35 -11 -36 14 -8 179
-67 181 -64 11 17 37 83 37 94 0 30 -20 14 -31 -25 -7 -22 -16 -40 -21 -40 -8
0 -47 18 -56 25 -2 2 4 17 13 34 14 28 14 31 0 31 -9 0 -21 -13 -26 -29 -10
-27 -13 -29 -40 -19 -34 12 -34 10 -13 50 11 21 13 33 5 41 -7 7 -12 5 -17 -9z"/>
<path d="M751 2013 c-31 -12 -102 -93 -121 -137 -18 -38 -27 -47 -60 -56 -55
-15 -53 -34 3 -26 l42 6 1 -47 c0 -27 2 -58 5 -71 3 -20 -3 -26 -44 -42 l-48
-19 6 28 c3 16 1 58 -5 94 -11 58 -10 68 9 105 24 48 61 84 127 123 28 17 38
27 24 23 -68 -18 -127 -70 -165 -145 -20 -38 -22 -52 -15 -85 5 -21 10 -68 10
-104 0 -63 1 -66 32 -83 18 -10 53 -42 76 -71 33 -40 55 -57 85 -65 76 -22
306 -106 375 -137 18 -9 40 -14 50 -12 9 2 -14 15 -53 29 -38 15 -123 46 -187
70 -65 24 -114 47 -110 51 5 5 53 -10 108 -33 54 -22 126 -51 159 -63 33 -13
69 -27 80 -31 14 -6 17 -5 10 3 -10 11 -307 132 -325 132 -15 0 -87 101 -115
163 -51 109 -48 233 6 309 12 16 22 35 23 43 1 8 6 18 11 22 4 4 5 2 1 -4 -5
-9 0 -13 14 -13 12 0 18 5 15 10 -4 6 16 10 54 10 32 0 65 2 73 3 7 2 10 2 5
0 -4 -3 -5 -8 -2 -13 9 -14 -33 -22 -54 -11 -11 6 -28 11 -38 10 -22 0 79 -48
127 -60 21 -5 39 -4 47 3 9 7 35 -9 100 -64 90 -76 143 -113 88 -61 -17 15
-57 51 -90 78 -32 28 -70 62 -83 77 -41 45 -100 68 -173 67 -35 0 -71 -3 -78
-6z m202 -49 c-3 -8 1 -14 8 -14 10 0 10 -3 2 -11 -13 -13 -63 -4 -63 12 0 6
9 8 21 4 18 -6 21 -4 17 13 -4 14 -2 19 8 15 7 -2 10 -11 7 -19z m-273 -72
c-11 -22 -20 -48 -20 -57 0 -8 -6 -15 -12 -15 -7 0 -24 -3 -38 -5 -23 -5 -23
-4 3 6 19 7 35 28 53 66 14 30 28 53 30 50 2 -2 -5 -22 -16 -45z m-33 -134
c-3 -7 -5 -2 -5 12 0 14 2 19 5 13 2 -7 2 -19 0 -25z m10 -65 c-3 -10 -5 -2
-5 17 0 19 2 27 5 18 2 -10 2 -26 0 -35z m13 -37 c0 -2 3 -13 6 -23 5 -17 5
-17 -6 0 -6 9 -15 15 -21 12 -5 -4 -9 -1 -9 4 0 6 7 11 15 11 8 0 15 -2 15 -4z
m4 -90 c26 -38 45 -70 44 -71 -2 -1 -13 -7 -24 -13 -19 -10 -25 -7 -48 28 -14
22 -44 52 -66 66 -22 15 -40 27 -40 28 0 1 9 2 21 3 12 1 31 8 43 16 11 8 22
14 22 13 1 0 23 -32 48 -70z m20 28 c3 -8 2 -12 -4 -9 -6 3 -10 10 -10 16 0
14 7 11 14 -7z m31 -50 c9 -15 12 -23 6 -20 -11 7 -35 46 -28 46 3 0 12 -12
22 -26z m40 -54 c3 -5 0 -7 -8 -4 -8 3 -18 1 -22 -5 -3 -6 1 -11 9 -11 9 0 16
-4 16 -10 0 -11 -43 -14 -53 -4 -6 6 32 43 45 44 4 0 10 -4 13 -10z"/>
<path d="M2094 1965 c-3 -8 -3 -18 0 -23 11 -18 -38 -34 -68 -23 -38 15 -56
14 -56 -4 0 -14 52 -29 80 -23 10 2 14 -3 12 -14 -2 -10 2 -18 8 -18 5 0 10
-4 10 -8 0 -11 -138 -42 -188 -42 -47 0 -53 -8 -19 -29 40 -26 185 -10 349 38
57 16 102 24 110 20 7 -5 20 -9 28 -9 12 1 12 3 -2 14 -24 18 -23 26 3 26 12
0 36 15 55 34 34 34 43 56 24 56 -5 0 -10 -4 -10 -8 0 -13 -48 -34 -100 -44
-83 -17 -165 -25 -168 -16 -2 5 -10 14 -17 21 -9 10 -10 19 -3 31 8 13 7 21
-3 27 -21 13 -39 11 -45 -6z m31 -68 c-12 -28 124 -46 168 -21 9 5 9 4 1 -5
-6 -7 -18 -14 -25 -15 -8 -2 -21 -5 -29 -9 -8 -3 -44 -11 -80 -18 -36 -7 -68
-17 -72 -23 -5 -7 -8 -4 -8 7 0 9 5 17 11 17 7 0 8 14 4 40 -6 36 -5 40 14 40
12 0 18 -5 16 -13z m-55 -86 c0 -5 -13 -11 -30 -13 -16 -3 -30 -1 -30 3 0 4
12 10 28 12 15 2 28 5 30 6 1 0 2 -3 2 -8z"/>
<path d="M178 1903 c7 -3 16 -2 19 1 4 3 -2 6 -13 5 -11 0 -14 -3 -6 -6z"/>
<path d="M130 1867 c0 -11 17 -19 58 -27 99 -20 99 -20 22 -46 -84 -29 -110
-41 -110 -54 0 -10 189 -55 197 -47 13 13 -11 25 -79 37 l-73 13 85 30 c82 30
107 45 92 58 -4 3 -41 13 -82 22 -42 9 -83 19 -93 23 -11 4 -17 1 -17 -9z"/>
<path d="M2710 1852 c-47 -23 -62 -57 -49 -108 14 -51 18 -54 58 -46 51 11 54
35 5 30 -38 -3 -39 -2 -42 33 -4 44 21 69 75 76 52 6 75 -13 82 -70 5 -35 9
-44 19 -38 21 13 4 81 -29 113 -32 33 -68 36 -119 10z"/>
<path d="M76 1533 c-6 -14 -5 -15 5 -6 7 7 10 15 7 18 -3 3 -9 -2 -12 -12z"/>
<path d="M144 1538 c-23 -11 -44 -48 -44 -77 0 -28 36 -68 67 -74 86 -17 141
83 77 141 -27 23 -65 27 -100 10z m72 -18 c9 0 12 -4 9 -10 -3 -5 -2 -10 4
-10 19 0 23 -41 7 -65 -29 -44 -106 -21 -106 31 0 29 38 66 58 59 8 -3 20 -5
28 -5z"/>
<path d="M2745 1539 c-33 -19 -45 -41 -45 -80 0 -30 6 -42 29 -58 39 -28 73
-26 110 5 39 32 42 80 8 112 -28 27 -75 36 -102 21z m82 -39 c18 -22 16 -65
-4 -81 -11 -9 -14 -10 -9 -2 5 9 2 11 -8 7 -9 -3 -13 -10 -10 -15 3 -5 0 -9
-5 -9 -6 0 -11 5 -11 11 0 6 -9 8 -22 3 -13 -3 -20 -3 -16 1 4 4 1 14 -7 22
-17 17 -20 53 -4 53 5 0 7 4 4 10 -4 6 1 7 11 3 10 -4 15 -2 11 3 -10 16 57
11 70 -6z"/>
<path d="M131 1314 c0 -11 3 -14 6 -6 3 7 2 16 -1 19 -3 4 -6 -2 -5 -13z"/>
<path d="M208 1212 c-101 -61 -100 -78 2 -74 l75 3 -60 -34 c-33 -19 -62 -42
-63 -51 -3 -15 7 -17 102 -15 71 2 105 6 103 13 -3 7 -35 10 -86 9 -46 -1 -81
0 -79 3 2 2 33 19 69 38 89 47 85 61 -16 58 l-80 -3 68 41 c63 39 83 61 55 60
-7 -1 -48 -22 -90 -48z"/>
<path d="M2656 1232 c-14 -13 -2 -21 64 -38 39 -10 70 -21 70 -25 0 -3 -14 -9
-30 -13 -73 -14 -140 -38 -140 -50 0 -13 177 -72 187 -62 12 11 -10 25 -59 36
-86 20 -85 25 6 50 78 21 114 45 83 55 -80 26 -177 52 -181 47z"/>
<path d="M1913 1165 c0 -8 11 -25 24 -37 21 -19 26 -20 34 -8 9 12 10 12 5 -3
-4 -12 2 -20 19 -27 14 -5 25 -12 25 -15 0 -4 -6 -3 -12 0 -7 3 -4 0 6 -7 11
-7 36 -28 57 -46 20 -18 41 -31 46 -30 15 5 17 -19 4 -40 -6 -10 -13 -11 -27
-4 -40 22 -177 72 -184 67 -5 -3 -10 -1 -12 5 -1 5 -19 12 -38 15 -29 4 -24 0
30 -26 36 -17 75 -32 87 -33 13 0 23 -4 23 -8 0 -5 3 -7 8 -7 4 1 23 -4 42
-11 19 -8 37 -12 39 -11 2 1 7 -3 12 -10 6 -10 11 -10 22 -1 10 9 18 9 31 -1
17 -12 14 -15 -25 -29 -24 -8 -56 -16 -70 -16 -38 -2 -81 -20 -74 -32 3 -5 41
-10 83 -10 82 0 125 7 117 20 -2 4 7 12 21 19 21 9 30 7 62 -14 20 -14 40 -25
44 -25 17 0 7 17 -17 30 -13 7 -32 33 -42 56 -17 41 -20 44 -49 38 -26 -5 -37
1 -80 43 -58 58 -119 104 -128 98 -3 -3 -4 -2 -1 2 9 12 -16 32 -32 26 -10 -4
-14 -2 -10 4 3 5 -3 17 -14 26 -24 21 -26 21 -26 2z m32 -23 c-3 -3 -11 0 -18
7 -9 10 -8 11 6 5 10 -3 15 -9 12 -12z m235 -202 c13 -8 13 -10 -2 -10 -9 0
-20 5 -23 10 -8 13 5 13 25 0z m60 -4 c0 -3 -4 -8 -10 -11 -5 -3 -10 -1 -10 4
0 6 5 11 10 11 6 0 10 -2 10 -4z m-35 -26 c-3 -5 -16 -15 -28 -21 -21 -10 -21
-9 2 10 25 23 36 27 26 11z m-50 -51 c-7 -11 -95 -12 -95 -1 0 4 23 8 50 9 29
1 48 -2 45 -8z"/>
<path d="M2593 1031 c-53 -50 -33 -127 40 -156 53 -21 93 -12 118 28 26 44 24
71 -9 108 -23 25 -38 32 -78 36 -40 4 -53 1 -71 -16z m108 -24 c27 -18 35 -31
37 -59 3 -29 -1 -39 -19 -48 -25 -14 -69 -7 -104 16 -33 22 -35 76 -3 98 30
22 49 20 89 -7z"/>
<path d="M257 993 c-56 -3 -77 -7 -74 -16 2 -7 18 -11 35 -11 26 2 32 -4 48
-37 16 -36 16 -40 1 -57 -18 -20 -22 -42 -9 -42 4 0 39 31 76 70 72 74 80 102
29 98 -15 -1 -63 -4 -106 -5z m103 -21 c0 -10 -59 -67 -63 -61 -2 2 -8 16 -14
31 -12 26 -11 27 25 31 20 2 40 4 45 5 4 1 7 -2 7 -6z"/>
<path d="M2275 990 c3 -5 8 -10 11 -10 2 0 4 5 4 10 0 6 -5 10 -11 10 -5 0 -7
-4 -4 -10z"/>
<path d="M410 914 c0 -3 9 -19 20 -34 l20 -28 -75 -47 c-41 -26 -73 -51 -70
-56 10 -15 19 -11 90 36 37 25 68 44 70 43 1 -2 11 -17 23 -34 l21 -30 -69
-54 -69 -54 19 -25 c26 -37 59 -65 67 -58 4 4 -6 21 -22 37 l-29 30 26 27 26
26 25 -29 c14 -16 29 -26 33 -21 4 4 -3 18 -16 32 l-24 25 22 23 22 22 36 -39
36 -39 -63 -63 c-45 -45 -60 -67 -53 -74 8 -8 19 -2 38 21 36 42 49 29 37 -37
-7 -34 -6 -53 2 -63 10 -11 13 -9 18 10 4 13 7 39 8 57 1 29 4 32 31 32 20 0
35 8 45 24 19 29 11 51 -35 89 -16 14 -30 28 -30 32 0 3 -13 20 -30 38 -16 18
-51 67 -77 109 -27 43 -54 78 -60 78 -7 0 -13 -3 -13 -6z m220 -295 c9 -15 8
-24 -1 -35 -14 -18 -30 -18 -54 -1 -17 14 -17 15 1 35 25 26 41 27 54 1z"/>
<path d="M2523 881 c3 -12 0 -21 -6 -21 -19 -1 -108 -128 -96 -136 7 -4 15 -1
20 7 30 50 26 51 115 -15 46 -34 63 -42 67 -32 4 9 -19 31 -64 62 -38 27 -69
51 -68 54 0 3 10 18 24 34 l23 29 67 -41 c70 -45 85 -50 85 -29 0 6 -35 32
-78 57 -98 57 -96 57 -89 31z"/>
<path d="M2356 681 c-3 -5 11 -42 30 -82 20 -41 40 -85 46 -98 6 -16 12 -21
19 -14 7 7 6 18 -2 36 -10 23 -9 31 15 62 26 34 28 34 52 19 20 -13 27 -14 39
-4 13 11 0 19 -82 51 -107 42 -109 43 -117 30z m49 -30 c3 -5 19 -12 35 -16
36 -8 37 -15 7 -43 l-22 -21 -22 44 c-12 25 -18 45 -13 45 5 0 11 -4 15 -9z"/>
<path d="M2275 601 c-3 -5 5 -20 17 -33 13 -13 44 -47 70 -77 37 -43 49 -51
54 -38 4 11 -8 31 -34 59 -22 24 -50 55 -62 71 -22 28 -35 33 -45 18z"/>
<path d="M692 563 c-27 -11 -33 -41 -16 -83 9 -22 14 -47 10 -55 -9 -23 -42
-18 -65 11 -18 22 -22 24 -27 10 -7 -19 27 -53 63 -62 27 -7 63 19 63 46 0 10
-7 34 -15 54 -9 20 -13 41 -10 46 11 17 44 11 57 -10 15 -23 28 -26 28 -6 0
16 -47 56 -64 55 -6 0 -17 -3 -24 -6z"/>
<path d="M808 563 c7 -3 16 -2 19 1 4 3 -2 6 -13 5 -11 0 -14 -3 -6 -6z"/>
<path d="M2213 548 c-61 -43 -66 -102 -13 -158 39 -42 87 -41 135 1 22 19 32
36 27 41 -6 6 -21 -3 -40 -21 -17 -17 -39 -31 -49 -31 -35 1 -83 57 -83 98 0
23 40 62 63 62 9 0 17 7 17 15 0 21 -20 19 -57 -7z"/>
<path d="M799 478 c-7 -13 -30 -50 -51 -82 -30 -45 -36 -61 -26 -67 9 -6 19 3
33 25 17 28 24 32 38 24 29 -16 69 -5 91 25 l21 29 -39 34 c-46 40 -52 41 -67
12z m57 -29 c21 -23 10 -52 -22 -57 -37 -5 -47 12 -27 46 21 38 24 38 49 11z"/>
<path d="M486 477 c3 -10 9 -15 12 -12 3 3 0 11 -7 18 -10 9 -11 8 -5 -6z"/>
<path d="M2024 426 c-48 -41 -32 -120 32 -162 21 -14 31 -15 63 -5 71 21 87
102 31 161 -36 38 -86 41 -126 6z m93 -11 c12 -8 27 -31 33 -50 10 -29 9 -40
-3 -59 -27 -40 -56 -40 -94 0 -38 40 -42 75 -13 104 24 24 48 25 77 5z"/>
<path d="M918 410 c-25 -15 -58 -74 -58 -104 0 -40 18 -66 56 -82 29 -12 39
-12 61 -2 36 18 62 56 69 100 6 32 2 41 -24 68 -32 31 -71 39 -104 20z m80
-26 c48 -33 8 -144 -53 -144 -57 0 -74 75 -29 129 29 35 49 38 82 15z"/>
<path d="M1898 379 c-10 -5 -22 -19 -28 -29 -17 -32 4 -57 65 -75 43 -12 55
-20 55 -36 0 -21 -43 -44 -67 -35 -13 6 -19 -20 -5 -27 16 -9 73 15 87 37 22
33 5 73 -32 81 -63 13 -78 21 -78 40 0 14 10 23 33 30 17 5 32 13 32 17 0 11
-42 9 -62 -3z"/>
<path d="M1086 357 c-2 -6 -13 -43 -24 -82 -11 -38 -22 -76 -23 -84 -2 -8 3
-16 13 -18 12 -3 18 6 23 36 9 54 31 53 46 -1 13 -45 34 -76 45 -66 3 4 -2 27
-11 53 -10 25 -16 46 -14 48 2 1 13 7 24 13 14 8 20 22 20 45 0 31 -4 35 -48
51 -36 14 -49 15 -51 5z m55 -27 c38 -21 10 -83 -30 -64 -15 7 -16 15 -9 42
10 36 11 36 39 22z"/>
<path d="M1762 334 c-22 -15 -27 -38 -16 -68 3 -8 28 -22 55 -31 40 -14 49
-21 49 -40 0 -25 -17 -35 -57 -35 -15 0 -23 -5 -20 -12 9 -29 94 2 103 38 10
37 -5 57 -57 73 -51 16 -61 28 -48 54 7 12 19 17 36 15 15 -2 28 3 30 10 7 18
-48 15 -75 -4z"/>
<path d="M1210 315 c0 -10 10 -15 31 -15 31 0 32 0 25 -42 -19 -128 -19 -138
-4 -138 11 0 17 16 22 63 12 103 14 109 48 105 47 -5 35 16 -14 24 -23 4 -58
10 -75 13 -26 5 -33 2 -33 -10z"/>
<path d="M756 297 c3 -10 9 -15 12 -12 3 3 0 11 -7 18 -10 9 -11 8 -5 -6z"/>
<path d="M1393 295 c-35 -25 -29 -59 17 -96 22 -18 40 -41 40 -50 0 -24 -41
-35 -70 -19 -19 10 -21 9 -18 -7 4 -24 61 -30 94 -8 37 24 30 54 -23 102 -44
38 -47 43 -32 58 12 13 21 14 44 5 29 -11 45 -6 29 9 -19 19 -59 22 -81 6z"/>
<path d="M1613 228 c-12 -46 -25 -91 -28 -101 -5 -12 -2 -17 9 -17 10 0 19 11
23 30 3 17 11 30 18 30 7 0 26 3 42 6 24 5 31 2 41 -20 6 -14 19 -26 27 -26
12 0 4 23 -32 90 -29 53 -54 90 -63 90 -12 0 -22 -24 -37 -82z m60 7 c16 -35
16 -35 -9 -41 -14 -4 -27 -5 -29 -2 -7 6 7 78 14 78 4 0 15 -16 24 -35z"/>
<path d="M715 2830 c3 -5 8 -10 11 -10 2 0 4 5 4 10 0 6 -5 10 -11 10 -5 0 -7
-4 -4 -10z"/>
<path d="M156 2273 c-6 -14 -5 -15 5 -6 7 7 10 15 7 18 -3 3 -9 -2 -12 -12z"/>
<path d="M160 731 c0 -6 4 -13 10 -16 6 -3 7 1 4 9 -7 18 -14 21 -14 7z"/>
</g>
</svg>
